<svg width="90" height="113" viewBox="0 0 90 113" fill="none" xmlns="http://www.w3.org/2000/svg">
<path d="M14.9719 94.8359C14.8026 94.8424 14.5975 94.8815 14.3566 94.9531C14.1158 95.0182 13.9172 95.0996 13.7609 95.1973C13.5396 95.334 13.3605 95.5098 13.2238 95.7246C13.0936 95.9395 12.9634 96.1934 12.8332 96.4863C12.397 97.5215 11.7427 99.1361 10.8703 101.33C9.99792 103.518 9.09948 105.799 8.175 108.176H7.36445C6.42695 105.656 5.522 103.228 4.64961 100.891C3.77721 98.5534 3.18476 96.9746 2.87226 96.1543C2.79414 95.9525 2.68997 95.7767 2.55976 95.627C2.42956 95.4707 2.25703 95.3242 2.04219 95.1875C1.86641 95.0768 1.67109 94.9954 1.45625 94.9434C1.24141 94.8848 1.04284 94.849 0.860546 94.8359V94.1426H6.59297V94.8359C6.10469 94.862 5.69128 94.9108 5.35273 94.9824C5.0207 95.054 4.85469 95.181 4.85469 95.3633C4.85469 95.4349 4.86771 95.5195 4.89375 95.6172C4.91979 95.7148 4.94258 95.793 4.96211 95.8516C5.20299 96.4896 5.59362 97.5312 6.13398 98.9766C6.67435 100.415 7.44258 102.466 8.43867 105.129C8.93346 103.924 9.50312 102.502 10.1477 100.861C10.7922 99.2207 11.2251 98.0944 11.4465 97.4824C11.6613 96.89 11.785 96.4798 11.8176 96.252C11.8566 96.0241 11.8762 95.8385 11.8762 95.6953C11.8762 95.5456 11.8078 95.4219 11.6711 95.3242C11.5409 95.2201 11.3651 95.1322 11.1437 95.0605C10.9289 94.9954 10.7108 94.9466 10.4895 94.9141C10.2681 94.8815 10.0435 94.8555 9.81562 94.8359V94.1426H14.9719V94.8359ZM21.1523 108H16.4941V107.355C16.6439 107.342 16.7969 107.329 16.9531 107.316C17.1159 107.303 17.2559 107.277 17.373 107.238C17.5553 107.18 17.6888 107.079 17.7734 106.936C17.8646 106.786 17.9102 106.594 17.9102 106.359V100.412C17.9102 100.204 17.8613 100.015 17.7637 99.8457C17.6725 99.6699 17.5423 99.5234 17.373 99.4062C17.2493 99.3281 17.0703 99.263 16.8359 99.2109C16.6016 99.1523 16.3867 99.1165 16.1914 99.1035V98.4688L19.5898 98.2539L19.7266 98.3906V106.242C19.7266 106.47 19.7689 106.659 19.8535 106.809C19.9447 106.958 20.0846 107.069 20.2734 107.141C20.4167 107.199 20.5566 107.248 20.6934 107.287C20.8301 107.32 20.9831 107.342 21.1523 107.355V108ZM19.9219 94.4551C19.9219 94.8262 19.7982 95.1517 19.5508 95.4316C19.3099 95.7051 19.0104 95.8418 18.6523 95.8418C18.3203 95.8418 18.0306 95.7116 17.7832 95.4512C17.5423 95.1842 17.4219 94.8815 17.4219 94.543C17.4219 94.1849 17.5423 93.8724 17.7832 93.6055C18.0306 93.3385 18.3203 93.2051 18.6523 93.2051C19.0234 93.2051 19.3262 93.332 19.5605 93.5859C19.8014 93.8333 19.9219 94.123 19.9219 94.4551ZM29.4812 107.58C29.0581 107.756 28.6577 107.902 28.2801 108.02C27.9025 108.143 27.4402 108.205 26.8934 108.205C26.0861 108.205 25.5164 108.003 25.1844 107.6C24.8589 107.189 24.6961 106.613 24.6961 105.871V99.3477H22.9578V98.4102H24.7352V95.4121H26.5125V98.4102H29.2762V99.3477H26.532V104.729C26.532 105.132 26.5451 105.471 26.5711 105.744C26.6036 106.011 26.6753 106.245 26.7859 106.447C26.8901 106.636 27.0464 106.779 27.2547 106.877C27.463 106.975 27.743 107.023 28.0945 107.023C28.2573 107.023 28.4949 107.01 28.8074 106.984C29.1264 106.952 29.351 106.913 29.4812 106.867V107.58ZM40.7691 107.824C40.4632 107.935 40.193 108.023 39.9586 108.088C39.7307 108.16 39.4703 108.195 39.1773 108.195C38.6695 108.195 38.2626 108.078 37.9566 107.844C37.6572 107.603 37.4651 107.255 37.3805 106.799H37.3219C36.8987 107.268 36.443 107.626 35.9547 107.873C35.4729 108.12 34.8902 108.244 34.2066 108.244C33.484 108.244 32.8883 108.023 32.4195 107.58C31.9573 107.137 31.7262 106.558 31.7262 105.842C31.7262 105.471 31.7783 105.139 31.8824 104.846C31.9866 104.553 32.1428 104.289 32.3512 104.055C32.5139 103.859 32.7288 103.687 32.9957 103.537C33.2626 103.381 33.5133 103.257 33.7477 103.166C34.0406 103.055 34.6331 102.85 35.525 102.551C36.4234 102.251 37.0289 102.017 37.3414 101.848V100.881C37.3414 100.796 37.3219 100.633 37.2828 100.393C37.2503 100.152 37.1754 99.9238 37.0582 99.709C36.928 99.4681 36.7424 99.2598 36.5016 99.084C36.2672 98.9017 35.9319 98.8105 35.4957 98.8105C35.1962 98.8105 34.9163 98.8626 34.6559 98.9668C34.402 99.0645 34.2229 99.1686 34.1187 99.2793C34.1187 99.4095 34.148 99.6016 34.2066 99.8555C34.2717 100.109 34.3043 100.344 34.3043 100.559C34.3043 100.786 34.2001 100.995 33.9918 101.184C33.79 101.372 33.5068 101.467 33.1422 101.467C32.8167 101.467 32.5758 101.353 32.4195 101.125C32.2698 100.891 32.1949 100.63 32.1949 100.344C32.1949 100.044 32.2991 99.7578 32.5074 99.4844C32.7223 99.2109 32.999 98.9668 33.3375 98.752C33.6305 98.5697 33.9853 98.4167 34.402 98.293C34.8186 98.1628 35.2255 98.0977 35.6227 98.0977C36.1695 98.0977 36.6448 98.1367 37.0484 98.2148C37.4586 98.2865 37.8297 98.446 38.1617 98.6934C38.4937 98.9342 38.7444 99.263 38.9137 99.6797C39.0895 100.09 39.1773 100.62 39.1773 101.271C39.1773 102.202 39.1676 103.029 39.148 103.752C39.1285 104.468 39.1187 105.253 39.1187 106.105C39.1187 106.359 39.1611 106.561 39.2457 106.711C39.3368 106.861 39.4736 106.988 39.6559 107.092C39.7535 107.15 39.9065 107.183 40.1148 107.189C40.3297 107.196 40.5478 107.199 40.7691 107.199V107.824ZM37.3609 102.668C36.8076 102.831 36.3225 102.99 35.9059 103.146C35.4892 103.303 35.1018 103.498 34.7437 103.732C34.4182 103.954 34.1611 104.217 33.9723 104.523C33.7835 104.823 33.6891 105.181 33.6891 105.598C33.6891 106.138 33.829 106.535 34.109 106.789C34.3954 107.043 34.7568 107.17 35.193 107.17C35.6552 107.17 36.0621 107.059 36.4137 106.838C36.7652 106.61 37.0615 106.343 37.3023 106.037L37.3609 102.668ZM59.4203 108H54.723V107.355C54.8728 107.342 55.0225 107.329 55.1723 107.316C55.3285 107.303 55.4652 107.277 55.5824 107.238C55.7647 107.18 55.8982 107.079 55.9828 106.936C56.074 106.786 56.1195 106.594 56.1195 106.359V101.389C56.1195 100.712 55.9633 100.191 55.6508 99.8262C55.3448 99.4551 54.9607 99.2695 54.4984 99.2695C54.1794 99.2695 53.8799 99.3184 53.6 99.416C53.3201 99.5137 53.0629 99.6504 52.8285 99.8262C52.6397 99.9694 52.4802 100.126 52.35 100.295C52.2263 100.458 52.1319 100.594 52.0668 100.705V106.262C52.0668 106.49 52.1059 106.678 52.184 106.828C52.2621 106.971 52.3956 107.082 52.5844 107.16C52.7341 107.219 52.8676 107.264 52.9848 107.297C53.1085 107.323 53.268 107.342 53.4633 107.355V108H48.8637V107.355C49.0134 107.342 49.1566 107.329 49.2934 107.316C49.4366 107.303 49.5668 107.277 49.684 107.238C49.8663 107.18 49.9997 107.079 50.0844 106.936C50.1755 106.786 50.2211 106.594 50.2211 106.359V101.389C50.2211 100.712 50.0648 100.191 49.7523 99.8262C49.4464 99.4551 49.0622 99.2695 48.6 99.2695C48.281 99.2695 47.9815 99.3216 47.7016 99.4258C47.4216 99.5234 47.1645 99.6602 46.9301 99.8359C46.7413 99.9792 46.5818 100.142 46.4516 100.324C46.3214 100.5 46.2237 100.633 46.1586 100.725V106.242C46.1586 106.464 46.2042 106.649 46.2953 106.799C46.3865 106.949 46.5232 107.062 46.7055 107.141C46.8422 107.206 46.9822 107.255 47.1254 107.287C47.2686 107.32 47.4281 107.342 47.6039 107.355V108H42.9262V107.355C43.0759 107.342 43.2289 107.329 43.3852 107.316C43.5479 107.303 43.6879 107.277 43.8051 107.238C43.9874 107.18 44.1208 107.079 44.2055 106.936C44.2966 106.786 44.3422 106.594 44.3422 106.359V100.373C44.3422 100.165 44.2934 99.9792 44.1957 99.8164C44.1046 99.6471 43.9743 99.5039 43.8051 99.3867C43.6814 99.3086 43.5284 99.2467 43.3461 99.2012C43.1638 99.1491 42.975 99.1165 42.7797 99.1035V98.4688L46.0023 98.2539L46.1391 98.3906V99.7676H46.2074C46.3702 99.6048 46.5687 99.4128 46.8031 99.1914C47.0375 98.9701 47.2556 98.791 47.4574 98.6543C47.6853 98.498 47.9685 98.3678 48.307 98.2637C48.6521 98.1595 49.0232 98.1074 49.4203 98.1074C50.0453 98.1074 50.5824 98.2767 51.0316 98.6152C51.4809 98.9473 51.8031 99.3509 51.9984 99.8262C52.2328 99.5983 52.4379 99.3997 52.6137 99.2305C52.796 99.0547 53.0336 98.8691 53.3266 98.6738C53.574 98.5046 53.8637 98.3678 54.1957 98.2637C54.5342 98.1595 54.9086 98.1074 55.3187 98.1074C56.1326 98.1074 56.7771 98.3743 57.2523 98.9082C57.7276 99.4421 57.9652 100.262 57.9652 101.369V106.262C57.9652 106.49 58.0043 106.678 58.0824 106.828C58.1605 106.971 58.294 107.082 58.4828 107.16C58.6326 107.219 58.779 107.264 58.9223 107.297C59.072 107.323 59.238 107.342 59.4203 107.355V108ZM66.4211 108H61.7629V107.355C61.9126 107.342 62.0656 107.329 62.2219 107.316C62.3846 107.303 62.5246 107.277 62.6418 107.238C62.8241 107.18 62.9576 107.079 63.0422 106.936C63.1333 106.786 63.1789 106.594 63.1789 106.359V100.412C63.1789 100.204 63.1301 100.015 63.0324 99.8457C62.9413 99.6699 62.8111 99.5234 62.6418 99.4062C62.5181 99.3281 62.3391 99.263 62.1047 99.2109C61.8703 99.1523 61.6555 99.1165 61.4602 99.1035V98.4688L64.8586 98.2539L64.9953 98.3906V106.242C64.9953 106.47 65.0376 106.659 65.1223 106.809C65.2134 106.958 65.3534 107.069 65.5422 107.141C65.6854 107.199 65.8254 107.248 65.9621 107.287C66.0988 107.32 66.2518 107.342 66.4211 107.355V108ZM65.1906 94.4551C65.1906 94.8262 65.0669 95.1517 64.8195 95.4316C64.5786 95.7051 64.2792 95.8418 63.9211 95.8418C63.5891 95.8418 63.2993 95.7116 63.052 95.4512C62.8111 95.1842 62.6906 94.8815 62.6906 94.543C62.6906 94.1849 62.8111 93.8724 63.052 93.6055C63.2993 93.3385 63.5891 93.2051 63.9211 93.2051C64.2922 93.2051 64.5949 93.332 64.8293 93.5859C65.0702 93.8333 65.1906 94.123 65.1906 94.4551ZM79.4375 108H74.7207V107.355C74.8704 107.342 75.0332 107.329 75.209 107.316C75.3913 107.303 75.541 107.277 75.6582 107.238C75.8405 107.18 75.974 107.079 76.0586 106.936C76.1497 106.786 76.1953 106.594 76.1953 106.359V101.408C76.1953 100.725 76.0326 100.197 75.707 99.8262C75.388 99.4551 74.9974 99.2695 74.5352 99.2695C74.1901 99.2695 73.8743 99.3249 73.5879 99.4355C73.3014 99.5397 73.0475 99.6699 72.8262 99.8262C72.6113 99.9759 72.4388 100.139 72.3086 100.314C72.1849 100.484 72.0938 100.62 72.0352 100.725V106.262C72.0352 106.483 72.0807 106.665 72.1719 106.809C72.263 106.952 72.3997 107.062 72.582 107.141C72.7188 107.206 72.8652 107.255 73.0215 107.287C73.1842 107.32 73.3503 107.342 73.5195 107.355V108H68.8027V107.355C68.9525 107.342 69.1055 107.329 69.2617 107.316C69.4245 107.303 69.5645 107.277 69.6816 107.238C69.8639 107.18 69.9974 107.079 70.082 106.936C70.1732 106.786 70.2188 106.594 70.2188 106.359V100.412C70.2188 100.191 70.1699 99.9889 70.0723 99.8066C69.9811 99.6178 69.8509 99.4648 69.6816 99.3477C69.5579 99.2695 69.4115 99.2142 69.2422 99.1816C69.0729 99.1426 68.8906 99.1165 68.6953 99.1035V98.4688L71.8984 98.2539L72.0352 98.3906V99.748H72.084C72.2402 99.5918 72.4355 99.4062 72.6699 99.1914C72.9043 98.9701 73.1257 98.791 73.334 98.6543C73.5749 98.498 73.8613 98.3678 74.1934 98.2637C74.5254 98.1595 74.8997 98.1074 75.3164 98.1074C76.2409 98.1074 76.9245 98.3971 77.3672 98.9766C77.8164 99.5495 78.041 100.314 78.041 101.271V106.281C78.041 106.509 78.0801 106.695 78.1582 106.838C78.2363 106.975 78.3698 107.082 78.5586 107.16C78.7148 107.225 78.8483 107.271 78.959 107.297C79.0762 107.323 79.2357 107.342 79.4375 107.355V108ZM88.1766 103.283C88.4435 103.518 88.6486 103.788 88.7918 104.094C88.935 104.4 89.0066 104.774 89.0066 105.217C89.0066 106.109 88.6714 106.838 88.0008 107.404C87.3367 107.971 86.4741 108.254 85.4129 108.254C84.853 108.254 84.3354 108.153 83.8602 107.951C83.3914 107.749 83.0561 107.564 82.8543 107.395L82.659 108.029H81.9266L81.8289 104.68H82.5027C82.5548 104.934 82.6655 105.23 82.8348 105.568C83.004 105.907 83.2091 106.213 83.45 106.486C83.7039 106.773 84.0066 107.014 84.3582 107.209C84.7163 107.404 85.1167 107.502 85.5594 107.502C86.1844 107.502 86.6661 107.362 87.0047 107.082C87.3432 106.796 87.5125 106.389 87.5125 105.861C87.5125 105.588 87.4572 105.354 87.3465 105.158C87.2423 104.956 87.0861 104.781 86.8777 104.631C86.6629 104.481 86.3992 104.348 86.0867 104.23C85.7742 104.107 85.4259 103.986 85.0418 103.869C84.7358 103.778 84.394 103.654 84.0164 103.498C83.6453 103.335 83.3263 103.146 83.0594 102.932C82.7729 102.704 82.5385 102.424 82.3562 102.092C82.174 101.76 82.0828 101.369 82.0828 100.92C82.0828 100.132 82.3758 99.4648 82.9617 98.918C83.5477 98.3711 84.3322 98.0977 85.3152 98.0977C85.6928 98.0977 86.077 98.1465 86.4676 98.2441C86.8647 98.3418 87.187 98.459 87.4344 98.5957L87.659 98.0879H88.3621L88.5086 101.184H87.8348C87.698 100.493 87.4018 99.9336 86.9461 99.5039C86.4969 99.0677 85.9467 98.8496 85.2957 98.8496C84.7618 98.8496 84.3419 98.9831 84.0359 99.25C83.7299 99.5169 83.577 99.8392 83.577 100.217C83.577 100.51 83.6258 100.754 83.7234 100.949C83.8276 101.145 83.9806 101.311 84.1824 101.447C84.3777 101.577 84.6219 101.701 84.9148 101.818C85.2143 101.929 85.5822 102.056 86.0184 102.199C86.448 102.336 86.8517 102.495 87.2293 102.678C87.6134 102.86 87.9292 103.062 88.1766 103.283Z" fill="#545454"/>
<path d="M69.3108 35.3986C66.0359 34.284 61.7048 33.6702 57.1158 33.6702C56.8289 33.6702 56.5431 33.6725 56.2586 33.6773C51.9894 33.7488 47.991 34.3536 44.9207 35.3986C44.428 35.5653 43.9424 35.7523 43.4651 35.9589V17.2325C43.4651 9.38472 37.0805 3 29.2325 3C21.3846 3 15 9.38472 15 17.2325V42.9261C15 50.7739 21.3846 57.1587 29.2325 57.1587C31.722 57.1587 34.1722 56.5062 36.3188 55.2717C37.6721 54.4934 38.8881 53.4936 39.9168 52.3257C40.6645 53.3761 42.1451 54.4856 44.9208 55.4303C48.1957 56.5448 52.5266 57.1587 57.1157 57.1587C61.7047 57.1587 66.0357 56.5448 69.3107 55.4303C74.0129 53.83 75 51.7566 75 50.299V40.5299C75 39.0723 74.0129 36.9989 69.3108 35.3986ZM41.5754 40.5299C41.5759 40.4863 41.5798 40.4428 41.5871 40.3998L41.5891 40.3882C41.6289 40.1764 41.7563 39.9305 41.9907 39.6639L41.9952 39.6589C42.0307 39.6187 42.0695 39.578 42.1099 39.5368C42.137 39.5096 42.1641 39.4823 42.193 39.4552L42.2271 39.4233C42.4235 39.2422 42.6601 39.0603 42.9332 38.8825C42.9379 38.8794 42.9418 38.8757 42.9464 38.8726C43.5871 38.4565 44.478 38.025 45.6759 37.6173C48.7141 36.5834 52.7769 36.0138 57.1158 36.0138C61.0691 36.0139 64.7904 36.488 67.719 37.3541L42.6397 41.9756C41.8868 41.4213 41.5767 40.9077 41.5754 40.5323V40.5299ZM41.1213 37.2903C40.2179 37.9825 39.7144 38.6857 39.4591 39.3382C39.3731 39.5576 39.3108 39.7855 39.2733 40.0181C39.2561 40.1239 39.2443 40.2305 39.2379 40.3375L39.2359 40.3677C39.2331 40.4224 39.2313 40.4766 39.2313 40.5298V49.3609C37.0289 52.7824 33.315 54.8149 29.2325 54.8149C22.6771 54.8149 17.3438 49.4816 17.3438 42.9261V31.2512H19.6875V37.5793C19.6875 38.2266 20.2123 38.7512 20.8594 38.7512C21.5065 38.7512 22.0312 38.2266 22.0312 37.5793V31.2512H41.1213V37.2903ZM41.1213 28.9075H22.0312V17.2325C22.0312 13.2618 25.2616 10.0312 29.2325 10.0312C33.2034 10.0312 36.4338 13.2618 36.4338 17.2325C36.4338 17.8798 36.9586 18.4044 37.6057 18.4044C38.2529 18.4044 38.7776 17.8798 38.7776 17.2325C38.7776 11.9694 34.4957 7.6875 29.2325 7.6875C23.9694 7.6875 19.6875 11.9694 19.6875 17.2325V28.9075H17.3438V17.2325C17.3438 10.6771 22.6771 5.34375 29.2325 5.34375C35.788 5.34375 41.1213 10.6771 41.1213 17.2325V28.9075ZM72.6562 50.299C72.6562 50.9987 71.5823 52.1814 68.5556 53.2116C65.5174 54.2455 61.4546 54.815 57.1158 54.815C52.7769 54.815 48.7141 54.2456 45.6759 53.2116C42.6492 52.1815 41.5753 50.9988 41.5753 50.299V49.6986L41.5754 49.697V44.0932C42.3962 44.6393 43.4844 45.1724 44.9208 45.6612C48.1957 46.7757 52.5267 47.3896 57.1158 47.3896C61.7048 47.3896 66.0359 46.7757 69.3108 45.6612C70.7471 45.1723 71.8355 44.6393 72.6562 44.0931V50.299ZM68.5556 43.4423C65.5174 44.4763 61.4548 45.0458 57.1158 45.0458C53.1056 45.0458 49.3334 44.5584 46.386 43.6685L71.525 39.036C72.3278 39.6098 72.6562 40.1435 72.6562 40.5299C72.6562 41.2296 71.5823 42.4123 68.5556 43.4423Z" fill="#F1CDB3"/>
<path d="M21.6878 41.402C21.6339 41.3481 21.5742 41.2989 21.5098 41.2567C21.4459 41.2141 21.378 41.178 21.307 41.1489C21.2367 41.1196 21.163 41.0973 21.088 41.0821C20.9372 41.0516 20.7818 41.0516 20.631 41.0821C20.556 41.0973 20.4821 41.1196 20.4107 41.1489C20.3402 41.1782 20.2724 41.2145 20.2091 41.2567C20.1445 41.2989 20.0848 41.3481 20.0309 41.402C19.9769 41.4559 19.9277 41.5157 19.8855 41.5802C19.8422 41.6434 19.807 41.7114 19.7777 41.7829C19.7484 41.8532 19.725 41.927 19.711 42.002C19.6957 42.077 19.6876 42.1544 19.6876 42.2305C19.6876 42.3079 19.6957 42.3841 19.711 42.4602C19.725 42.5352 19.7484 42.6091 19.7777 42.6794C19.807 42.7497 19.8422 42.8177 19.8855 42.8821C19.9277 42.9454 19.9769 43.0052 20.0309 43.0602C20.1953 43.2232 20.404 43.3345 20.631 43.3802C20.706 43.3954 20.7833 43.4024 20.8595 43.4024C21.0131 43.4028 21.1653 43.3725 21.307 43.3134C21.378 43.2842 21.4459 43.2481 21.5098 43.2055C21.5742 43.1622 21.634 43.1141 21.6879 43.0602C21.7419 43.0052 21.7911 42.9454 21.8332 42.8821C21.8754 42.8177 21.9117 42.7497 21.941 42.6794C21.9703 42.6091 21.9937 42.5352 22.009 42.4602C22.0242 42.3841 22.0312 42.3079 22.0312 42.2305C22.0312 41.9223 21.9059 41.62 21.6878 41.402Z" fill="#F1CDB3"/>
</svg>
